name grf.mot
datacolumns 19
datarows 22
range 1.8912499999999999 1.9175
DataType=double
version=3
OpenSimVersion=4.4
endheader
time	R_ground_force_vx	R_ground_force_vy	R_ground_force_vz	R_ground_force_px	R_ground_force_py	R_ground_force_pz	L_ground_force_vx	L_ground_force_vy	L_ground_force_vz	L_ground_force_px	L_ground_force_py	L_ground_force_pz	R_ground_torque_x	R_ground_torque_y	R_ground_torque_z	L_ground_torque_x	L_ground_torque_y	L_ground_torque_z
1.8912499999999999	-6.937312685261748	430.0791140430257	-18.885890276945133	0.4218372569275581	3.385425646894391e-05	0.2670200674399368	0.0	0.0	0.0	0.0	0.0	0.0	0.00713114025120928	1.0851670581168178	-0.003025679604278821	0.0	0.0	0.0
1.8925	-6.041687108820186	433.79416960668	-20.651475855554512	0.42406217749166697	2.0133673274213892e-05	0.2673430017281563	0.0	0.0	0.0	0.0	0.0	0.0	0.006480359202400394	0.9861357487698504	-0.0027495589732341123	0.0	0.0	0.0
1.89375	-5.578236515590596	434.553133562762	-20.696447149350558	0.4243220511818454	1.8274726852358315e-05	0.26728877533640344	0.0	0.0	0.0	0.0	0.0	0.0	0.007279822769114629	1.1077925240121753	-0.0030887642788317783	0.0	0.0	0.0
1.895	-5.133559133803967	438.9521740724651	-21.16887099217998	0.42431471465138476	1.8470689729116917e-05	0.267341766614982	0.0	0.0	0.0	0.0	0.0	0.0	0.00742224467362437	1.1294652935390435	-0.003149192630609686	0.0	0.0	0.0
1.89625	-4.425507534565337	438.94681808433506	-21.42102149152248	0.42525168407741726	1.3512044870566564e-05	0.2677716542782014	0.0	0.0	0.0	0.0	0.0	0.0	0.007899368119908446	1.2020706032543935	-0.0033516318800551233	0.0	0.0	0.0
1.8975	-3.131634063409203	445.7111392800324	-21.94380740079113	0.4244165902974482	1.798728842426689e-05	0.26740850148938905	0.0	0.0	0.0	0.0	0.0	0.0	0.007055500572999447	1.0736567408059292	-0.0029935863592196036	0.0	0.0	0.0
1.89875	-2.882536798949748	445.87643223001686	-22.821425866414952	0.4262224010503388	7.900948075003523e-06	0.26804707718633247	0.0	0.0	0.0	0.0	0.0	0.0	0.007801056435580539	1.1871102185890472	-0.0033099191037452187	0.0	0.0	0.0
1.9	-1.5854425185460501	453.9890973390263	-25.68543680659511	0.424697598641966	1.4952825915490186e-05	0.26698248518704293	0.0	0.0	0.0	0.0	0.0	0.0	0.004002513860679914	0.6090745712832203	-0.0016982311562374415	0.0	0.0	0.0
1.90125	-0.45029767927819586	454.66494576194714	-23.561293984434116	0.4253853741863191	1.2598619391786303e-05	0.26775914260221795	0.0	0.0	0.0	0.0	0.0	0.0	0.0075568282776290515	1.1499452853052625	-0.0032062952609552674	0.0	0.0	0.0
1.9025	0.6080773940888791	457.6179960522057	-24.90775570190122	0.4264786907228778	4.29614841349113e-06	0.2673582493801679	0.0	0.0	0.0	0.0	0.0	0.0	0.006662269502888506	1.0138175862695904	-0.0028267419014343783	0.0	0.0	0.0
1.90375	0.6927610556351631	457.95511217288674	-25.284560522625995	0.4269840213789354	1.946193444123612e-06	0.26770643233360314	0.0	0.0	0.0	0.0	0.0	0.0	0.0069177224267741345	1.0526906259427757	-0.00293512831292349	0.0	0.0	0.0
1.905	1.9354864421015825	463.44832548701095	-26.262847902991584	0.426402451561111	5.593301172195364e-06	0.26764379028366453	0.0	0.0	0.0	0.0	0.0	0.0	0.007156126302869224	1.0889692607406096	-0.003036280964543209	0.0	0.0	0.0
1.90625	3.7484102068474585	466.8214194213994	-27.027938432145465	0.42645687468893595	4.711670728275718e-06	0.2674558598243586	0.0	0.0	0.0	0.0	0.0	0.0	0.007795423293572555	1.1862530064286607	-0.003307529011518569	0.0	0.0	0.0
1.9075	4.211040157247966	474.1823633209327	-28.1347275436532	0.42528803598233567	1.037748282027895e-05	0.2667331130718622	0.0	0.0	0.0	0.0	0.0	0.0	0.006426127187212975	0.9778830999221857	-0.0027265488098561466	0.0	0.0	0.0
1.90875	4.085079374404125	473.677949923489	-27.131246172305747	0.42784744537138486	-2.232483114325112e-06	0.26824272025925405	0.0	0.0	0.0	0.0	0.0	0.0	0.007517143258282025	1.1439062965630598	-0.003189457258980289	0.0	0.0	0.0
1.91	6.000437273335223	480.34974038111574	-28.990986806592012	0.4268835094395139	3.7626533644911087e-06	0.2681210161280218	0.0	0.0	0.0	0.0	0.0	0.0	0.005373088802295791	0.8176390819965972	-0.0022797539563646123	0.0	0.0	0.0
1.91125	7.04306664414465	487.78678508078	-31.810767413670344	0.42713576608537857	-5.1054158420627e-07	0.26718296146213344	0.0	0.0	0.0	0.0	0.0	0.0	0.0013934675615036637	0.21204814952864245	-0.0005912359358450156	0.0	0.0	0.0
1.9125	6.715353661555124	488.2997691339621	-30.809614184731654	0.42800427628205734	-3.6743053459640242e-06	0.26809523776670136	0.0	0.0	0.0	0.0	0.0	0.0	0.006475767929238275	0.9854370809250409	-0.002747610936724532	0.0	0.0	0.0
1.91375	7.275631111437388	491.0904751580108	-30.81871262487427	0.428171886664749	-4.188606430494568e-06	0.2683058187385747	0.0	0.0	0.0	0.0	0.0	0.0	0.006336434029984475	0.9642342224447927	-0.002688492798207291	0.0	0.0	0.0
1.915	7.765385822150426	495.9132952977516	-31.04197856189207	0.42812442268026707	-4.258077001539906e-06	0.2681690364087989	0.0	0.0	0.0	0.0	0.0	0.0	0.007167651879056607	1.0907231423308985	-0.003041171164366696	0.0	0.0	0.0
1.91625	7.952514630317907	499.0449438152763	-31.1345965251742	0.42822604130560016	-4.162919786271479e-06	0.2684426668829464	0.0	0.0	0.0	0.0	0.0	0.0	0.0072105901926268505	1.097257194638959	-0.0030593895102461765	0.0	0.0	0.0
1.9175	8.653977605739305	504.7945561740141	-32.52968028832187	0.4282570617733105	-5.840298245023523e-06	0.2679141824593904	0.0	0.0	0.0	0.0	0.0	0.0	0.006849068753351841	1.0422433899900192	-0.002905999167777673	0.0	0.0	0.0
